<svg xmlns="http://www.w3.org/2000/svg" xmlns:xlink="http://www.w3.org/1999/xlink" version="1.1" x="0px" y="0px" viewBox="0 0 100 100" enable-background="new 0 0 100 100" xml:space="preserve"><g><path d="M80.581,22.686c-0.109-0.028-11.176-2.522-19.864,9.706c-3.226-1.283-6.985-2.034-11.013-2.034   c-3.705,0-7.19,0.628-10.236,1.727c-8.715-12.523-19.938-9.991-20.048-9.962l-0.383,0.092v0.394   c0,11.344,7.273,17.002,9.794,18.622c-0.187,0.507-0.348,1.021-0.45,1.548c-0.786,2.667-1.049,5.48-1.276,7.925   c-0.178,1.91-0.332,3.56-0.702,4.565c-1.185,3.213-1.198,8.372-1.198,8.589c0,7.857,10.938,14.25,24.385,14.25   s24.385-6.393,24.385-14.25c0-0.217-0.014-5.375-1.198-8.589c-0.37-1.006-0.524-2.655-0.702-4.565   c-0.184-1.968-0.39-4.176-0.873-6.354c-0.021-0.798-0.166-1.576-0.378-2.337c2.11-1.277,10.142-6.922,10.142-18.84v-0.394   L80.581,22.686z M25.129,36.692c-0.04-2.754,0.183-11.778,4.737-11.932c2.802,1.382,5.834,3.746,8.629,7.692   c-3.302,1.342-6.02,3.258-7.83,5.538c-0.03,0.025-0.057,0.055-0.081,0.088c-0.039,0.055-0.078,0.111-0.116,0.167   c-0.495,0.655-0.909,1.341-1.249,2.048C28.27,39.672,26.706,38.503,25.129,36.692z M71.078,50.796   c0.184,1.979,0.344,3.689,0.76,4.818c1.122,3.045,1.136,8.192,1.136,8.243c0,7.307-10.49,13.25-23.385,13.25   s-23.385-5.943-23.385-13.25c0-0.051,0.013-5.196,1.136-8.243c0.416-1.128,0.576-2.838,0.76-4.818   c0.166-1.776,0.351-3.752,0.745-5.708c0.148-0.043,0.272-0.155,0.329-0.308l2.271-6.192c3.398-4.288,10.308-7.23,18.26-7.23   c7.75,0,14.509,2.793,17.993,6.905c-0.029,0.133-0.004,0.278,0.081,0.397c1.225,1.713,1.955,3.742,2.425,5.818   c0.001,0.043,0.001,0.086,0.001,0.129c0,0.106,0.033,0.204,0.089,0.285C70.715,46.912,70.906,48.96,71.078,50.796z M74.871,37.256   c-1.754,2.016-3.483,3.227-4.375,3.782c-1.336-3.415-4.519-6.339-8.819-8.258c2.747-3.802,5.713-6.102,8.457-7.456   C74.688,25.478,74.911,34.502,74.871,37.256z"></path><circle cx="31.704" cy="64.482" r="5.25"></circle><circle cx="67.454" cy="64.482" r="5.25"></circle><ellipse cx="50.641" cy="57.441" rx="1.563" ry="0.938"></ellipse><path d="M36.85,47.67c-2.623,0-4.75,2.127-4.75,4.75s2.127,4.75,4.75,4.75s4.75-2.127,4.75-4.75S39.473,47.67,36.85,47.67z    M38.568,53.357c-1.115,0-2.021-0.905-2.021-2.021c0-1.115,0.905-2.02,2.021-2.02s2.021,0.905,2.021,2.02   C40.588,52.453,39.683,53.357,38.568,53.357z"></path><path d="M54.572,63.024c-1.953,0-3.604-0.973-3.604-2.125h-1c0,1.152-1.65,2.125-3.604,2.125c-1.953,0-3.604-0.973-3.604-2.125h-1   c0,1.753,2.022,3.125,4.604,3.125c1.813,0,3.35-0.677,4.104-1.687c0.755,1.01,2.291,1.687,4.104,1.687   c2.582,0,4.604-1.372,4.604-3.125h-1C58.176,62.051,56.526,63.024,54.572,63.024z"></path><path d="M68.489,52.786l0.68-0.732c-1.147-1.066-2.462-1.577-3.931-1.51c-3.391,0.149-6.311,3.343-6.433,3.479l0.742,0.67   c0.027-0.03,2.758-3.019,5.734-3.15C66.458,51.493,67.543,51.909,68.489,52.786z"></path></g></svg>